<?xml version="1.0" encoding="utf-8"?>
<!-- Generator: Adobe Illustrator 27.0.1, SVG Export Plug-In . SVG Version: 6.00 Build 0)  -->
<svg version="1.1" id="Layer_1" xmlns="http://www.w3.org/2000/svg" xmlns:xlink="http://www.w3.org/1999/xlink" x="0px" y="0px"
	 viewBox="0 0 180.2 112.1" style="enable-background:new 0 0 180.2 112.1;" xml:space="preserve">
<style type="text/css">
	.st0{fill:none;stroke:#2EB454;stroke-width:8.4716;stroke-linecap:round;stroke-linejoin:round;stroke-miterlimit:10;}
	.st1{fill:#31B454;}
</style>
<g>
	<path class="st0" d="M142.4,102.5c16.6,0,30.9-12.9,30.9-28.7c0-11.9-8.5-22-21-25.9l-2.4-0.7l-0.4-2.1
		c-1.7-8.8-9.8-15.3-18.6-15.3c-3,0-6.1,0.7-8.5,1.8l-4,1.8l-1.7-3.5C110,17,95.4,8.7,79.7,8.7c-22.7,0-41,16.4-41,37.1V51h-4.4
		C19,51.4,7.2,62.6,7.2,76.5c0,14.3,12.2,25.9,27.5,26.3H36h106.5V102.5z"/>
</g>
<g>
	<path class="st1" d="M102.4,68.4c3.9-2.2,3.9-5.9,0-8.2L82.2,48.5c-3.9-2.2-7.1-0.4-7.1,4.1V76c0,4.5,3.2,6.3,7.1,4.1L102.4,68.4z"
		/>
</g>
</svg>
